<?xml version="1.0" standalone="no"?>
<!DOCTYPE svg PUBLIC "-//W3C//DTD SVG 20010904//EN"
 "http://www.w3.org/TR/2001/REC-SVG-20010904/DTD/svg10.dtd">
<svg version="1.0" xmlns="http://www.w3.org/2000/svg"
 width="300.000000pt" height="300.000000pt" viewBox="0 0 300.000000 300.000000"
 preserveAspectRatio="xMidYMid meet">
<metadata>
Created by potrace 1.10, written by Peter Selinger 2001-2011
</metadata>
<g transform="translate(0.000000,300.000000) scale(0.100000,-0.100000)"
fill="#000000" stroke="none">
<path d="M1970 2623 c0 -27 -3 -78 -7 -115 l-6 -68 -48 0 c-49 0 -79 -18 -79
-46 0 -8 -7 -14 -15 -14 -16 0 -35 -30 -35 -57 0 -10 -14 -24 -33 -33 l-32
-15 -3 -362 -2 -363 -28 0 c-41 0 -148 -28 -194 -50 -23 -11 -42 -19 -44 -17
-1 1 2 29 7 62 4 33 13 131 20 217 l12 157 26 3 c23 3 26 7 24 35 -2 17 2 35
7 38 13 8 13 35 0 55 -7 11 -36 16 -113 20 l-104 5 22 95 c85 363 85 370 19
370 -27 0 -35 -5 -39 -22 -3 -13 -16 -70 -29 -128 -13 -58 -34 -153 -47 -212
l-23 -108 -322 0 c-280 0 -325 -2 -338 -16 -18 -18 -21 -50 -5 -59 5 -4 9 -21
7 -38 -3 -28 0 -32 23 -35 26 -3 27 -6 33 -90 4 -48 18 -199 31 -337 13 -137
34 -353 45 -480 12 -126 27 -241 33 -253 29 -61 162 -88 372 -77 77 4 156 6
175 5 19 -1 301 -2 625 -3 l590 -2 17 35 c9 19 22 40 27 47 14 15 14 53 2 53
-6 0 -11 15 -13 32 -2 22 -10 36 -26 44 -12 6 -33 21 -46 33 -12 11 -27 21
-32 21 -5 0 -17 9 -27 20 -9 11 -28 20 -41 20 -13 0 -27 7 -30 16 -3 9 -6 296
-6 638 0 591 -1 624 -18 639 -10 10 -26 17 -35 17 -11 0 -17 8 -17 21 0 29
-18 59 -35 59 -8 0 -15 6 -15 14 0 28 -30 46 -79 46 l-48 0 -6 68 c-4 37 -7
88 -7 115 l0 47 -45 0 -45 0 0 -47z m70 -10 c0 -21 3 -68 7 -105 l6 -68 -34 0
-34 0 3 92 c4 111 6 118 32 118 16 0 20 -6 20 -37z m-685 -115 c-23 -95 -85
-395 -84 -408 1 -31 16 28 60 228 31 146 47 202 57 202 11 0 13 -8 9 -27 -4
-16 -17 -80 -31 -143 -14 -63 -33 -152 -43 -197 -17 -80 -19 -83 -45 -83 -33
0 -34 7 -13 93 17 74 75 343 75 351 0 3 5 6 10 6 6 0 8 -10 5 -22z m823 -98
c2 -13 -21 -15 -163 -15 -91 0 -165 1 -165 2 0 1 3 9 6 17 6 14 27 16 163 14
129 -3 156 -6 159 -18z m40 -42 c7 -7 12 -22 12 -35 l0 -23 -215 0 c-231 0
-232 0 -205 51 10 18 23 19 203 19 137 0 196 -3 205 -12z m71 -91 c17 -21 20
-1217 4 -1217 -7 0 -13 -9 -13 -20 0 -14 -12 -25 -40 -36 -22 -9 -40 -22 -40
-30 0 -12 -29 -34 -44 -34 -3 0 -6 13 -6 29 0 21 6 32 20 36 16 5 20 15 20 50
0 35 -4 45 -20 50 -14 4 -20 15 -20 36 0 26 3 29 31 29 l32 0 -6 58 c-19 182
-179 312 -403 329 -60 5 -74 9 -70 20 4 8 6 32 6 54 0 28 4 39 15 39 23 0 21
-87 -2 -93 -15 -4 -15 -5 -2 -6 9 0 22 6 29 14 7 8 9 15 6 15 -4 0 -2 9 4 20
9 16 7 27 -10 50 -12 17 -17 30 -11 30 6 0 11 7 11 15 0 8 5 15 10 15 6 0 10
67 10 180 0 104 -4 180 -9 180 -5 0 -11 10 -13 22 -3 20 -38 36 -38 17 0 -5 7
-9 15 -9 13 0 15 -29 15 -205 0 -171 -2 -205 -14 -205 -8 0 -16 -7 -18 -16 -2
-9 -3 116 -3 277 0 162 4 300 8 307 12 18 530 17 546 -1z m-769 -232 c6 -8 9
-19 5 -25 -4 -7 -160 -10 -475 -10 -388 0 -469 2 -473 14 -13 34 11 36 474 36
387 0 458 -2 469 -15z m-6 -77 c4 -17 -23 -18 -460 -18 -435 0 -464 1 -464 18
0 16 29 17 459 17 430 0 460 -1 465 -17z m-74 -60 c0 -9 4 -8 10 2 5 8 10 13
10 10 0 -3 -9 -101 -20 -219 -15 -168 -23 -218 -37 -233 -9 -10 -23 -16 -30
-13 -8 2 -11 1 -8 -4 3 -5 0 -13 -6 -17 -8 -5 -10 1 -7 19 3 15 2 25 -1 22 -4
-2 -13 10 -20 26 -7 16 -28 45 -46 64 -18 19 -27 35 -21 35 6 0 0 7 -14 15
-43 24 -92 45 -106 45 -8 0 -14 3 -14 8 0 12 -163 7 -187 -6 -26 -14 -36 -15
-28 -3 3 5 1 12 -5 16 -6 4 -10 -4 -10 -19 0 -17 -10 -31 -32 -45 -39 -24 -77
-70 -103 -126 -14 -30 -19 -65 -21 -137 0 -54 3 -95 7 -92 5 3 9 3 9 0 0 -2 3
-13 6 -23 5 -15 4 -16 -6 -3 -10 13 -11 13 -7 0 2 -8 9 -14 15 -13 15 4 55
-64 46 -78 -5 -8 -3 -9 5 -5 7 5 20 1 29 -7 29 -25 112 -67 132 -67 11 0 20
-5 20 -11 0 -17 110 -2 165 21 24 10 64 37 88 60 24 22 49 40 56 40 18 0 12
-49 -9 -70 -11 -11 -20 -33 -20 -50 0 -19 7 -34 20 -42 24 -15 26 -53 5 -74
-9 -10 -15 -34 -15 -64 0 -35 -4 -50 -16 -54 -13 -5 -15 -15 -11 -45 5 -37 3
-39 -25 -45 -50 -10 -333 -7 -385 4 -27 6 -62 21 -78 34 -29 23 -29 24 -46
212 -49 538 -79 863 -84 902 l-6 42 400 0 c314 0 401 -3 401 -12z m-303 -273
c65 -19 139 -85 169 -150 30 -63 30 -72 -2 -135 -16 -31 -28 -77 -32 -114 -4
-45 -11 -66 -26 -79 -113 -100 -271 -102 -381 -5 -68 60 -95 120 -95 210 0 93
28 157 95 216 76 67 171 87 272 57z m741 -110 c154 -36 252 -115 292 -235 37
-111 86 -100 -435 -100 l-454 0 5 33 c22 126 82 205 197 261 107 53 272 70
395 41z m-463 -372 c-16 -8 -40 -25 -52 -36 l-23 -20 0 36 0 37 53 0 52 -1
-30 -16z m715 -23 c0 -42 -9 -50 -30 -25 -7 9 -26 25 -42 36 -41 30 -73 19
-99 -34 -30 -60 -48 -77 -81 -77 -23 0 -34 9 -64 56 -42 65 -57 73 -96 51 -39
-23 -63 -21 -123 8 l-50 24 293 0 292 1 0 -40z m-564 5 l47 -25 -114 0 -114 1
45 24 c57 31 78 31 136 0z m483 -14 c9 -6 2 -10 -23 -13 -34 -4 -44 1 -29 15
9 10 35 8 52 -2z m-238 -71 l19 -30 -265 0 -265 0 0 28 c0 16 2 31 4 33 2 2
113 3 247 2 l242 -3 18 -30z m292 22 c8 -7 18 -6 31 4 25 18 36 10 36 -27 l0
-29 -121 0 -120 0 25 33 c23 30 28 32 80 31 31 -1 62 -6 69 -12z m255 -97 c18
-4 30 -10 27 -15 -3 -5 -2 -10 2 -13 5 -2 2 -2 -5 0 -8 1 -23 -4 -35 -12 -12
-8 -33 -16 -47 -16 -15 -1 -19 -3 -8 -6 9 -2 39 2 67 11 49 14 91 12 91 -5 0
-5 -17 -9 -37 -9 -21 0 -58 -7 -83 -16 -45 -16 -110 -13 -139 6 -25 15 4 40
37 31 15 -4 38 -4 52 0 21 6 18 7 -17 8 -54 1 -62 16 -21 40 18 11 38 24 43
29 7 7 15 4 25 -8 8 -10 30 -21 48 -25z m-228 -6 c0 -26 -3 -29 -20 -24 -11 4
-34 4 -50 0 -23 -5 -30 -12 -30 -30 0 -29 -22 -38 -48 -19 -20 13 -21 12 -24
-18 -4 -45 -32 -45 -36 0 -3 32 -4 33 -21 18 -26 -23 -51 -10 -51 26 0 27 -3
29 -32 26 -29 -3 -32 -6 -33 -38 0 -25 -5 -36 -17 -38 -15 -3 -18 4 -18 38 0
34 -3 41 -17 38 -11 -2 -17 -11 -15 -21 2 -10 -4 -17 -13 -17 -8 0 -15 9 -15
20 0 18 -7 20 -80 20 l-80 0 3 -47 c2 -38 -1 -48 -15 -51 -14 -3 -18 3 -18 29
0 32 0 32 -21 13 -25 -23 -54 -9 -54 27 0 22 -4 24 -42 23 -41 0 -43 1 -43 28
l0 28 395 0 395 0 0 -31z m-754 -49 c13 0 24 -5 24 -12 0 -20 32 -48 54 -48
12 0 27 -9 34 -20 12 -19 10 -20 -83 -20 l-95 0 0 48 c0 53 6 66 28 57 7 -3
25 -5 38 -5z m305 -23 c14 -18 19 -19 33 -8 14 12 16 11 16 -8 0 -14 8 -23 25
-27 33 -8 55 11 55 48 0 17 4 27 10 23 6 -4 8 -10 6 -14 -9 -14 24 -51 45 -51
10 0 28 -9 39 -20 20 -20 20 -20 -187 -19 -115 0 -201 3 -193 6 22 9 30 24 30
63 l0 35 52 -4 c37 -2 56 -9 69 -24z m474 23 c3 -5 -1 -10 -10 -10 -16 0 -36
-39 -28 -53 12 -21 -35 -36 -107 -36 -55 0 -69 3 -52 9 12 5 22 13 22 18 0 5
14 12 30 16 19 3 34 15 41 30 9 18 21 26 48 29 20 2 39 4 43 5 4 1 10 -2 13
-8z m345 -67 c0 -7 -7 -13 -15 -13 -8 0 -15 5 -15 10 0 6 -16 10 -35 10 -19 0
-35 -4 -35 -10 0 -6 -51 -10 -134 -10 -132 0 -133 0 -132 23 1 29 31 33 91 13
51 -18 120 -21 110 -7 -6 11 59 26 73 17 6 -3 21 -2 34 3 25 10 58 -10 58 -36z
m35 -48 c0 -6 -81 -11 -217 -13 -191 -2 -218 0 -218 13 0 13 27 15 218 13 136
-2 217 -7 217 -13z m-434 -27 c11 -11 19 -25 19 -29 0 -4 3 -15 6 -23 6 -15
-32 -16 -390 -15 l-397 1 -29 25 c-17 14 -30 33 -30 44 0 18 13 19 401 19 399
0 402 0 420 -22z m403 -23 c-14 -43 -20 -45 -187 -45 -140 0 -161 2 -173 18
-7 9 -14 24 -14 32 0 13 28 15 190 15 185 0 190 0 184 -20z"/>
<path d="M2003 2520 c0 -41 2 -58 4 -37 2 20 2 54 0 75 -2 20 -4 3 -4 -38z"/>
<path d="M2073 2343 c26 -2 68 -2 95 0 26 2 4 3 -48 3 -52 0 -74 -1 -47 -3z"/>
<path d="M1875 2250 c-153 -7 -147 -12 12 -10 l113 1 3 -368 2 -368 3 368 2
368 106 -4 c62 -3 110 -9 117 -16 15 -15 27 -950 13 -994 -6 -19 -5 -32 3 -40
15 -15 15 -50 -1 -41 -8 5 -9 2 -5 -10 4 -10 7 -36 7 -57 0 -24 4 -38 10 -34
6 4 10 211 10 589 0 543 -1 584 -18 599 -20 19 -170 25 -377 17z"/>
<path d="M955 1557 c-61 -30 -87 -57 -116 -121 -47 -107 11 -244 123 -290 76
-32 181 -13 245 43 31 26 63 104 67 162 4 49 -19 116 -52 153 -65 72 -180 95
-267 53z m164 -42 c37 -20 78 -61 98 -98 24 -44 24 -144 0 -180 -30 -47 -92
-80 -155 -85 -50 -3 -63 0 -111 30 -112 68 -135 199 -53 306 38 49 153 63 221
27z"/>
<path d="M1513 1453 c-7 -2 -13 -12 -13 -21 0 -15 2 -15 10 -2 7 12 12 12 22
2 10 -10 10 -17 0 -32 -7 -12 -8 -20 -2 -20 10 0 12 7 14 53 2 26 -6 31 -31
20z"/>
<path d="M1898 1410 c-5 -32 6 -41 16 -14 9 23 7 44 -3 44 -5 0 -11 -13 -13
-30z"/>
<path d="M1452 1422 c-13 -9 -10 -26 11 -70 8 -17 7 -26 -2 -35 -9 -9 -13 -9
-20 1 -6 9 -12 8 -26 -8 -10 -11 -31 -20 -46 -20 -15 0 -31 -4 -34 -10 -8 -13
2 -13 67 1 29 6 60 18 69 25 9 8 19 11 24 7 4 -5 0 4 -10 19 -9 16 -15 35 -11
43 3 9 2 13 -4 10 -6 -3 -10 -1 -10 4 0 6 5 11 10 11 6 0 10 7 10 15 0 17 -9
19 -28 7z"/>
<path d="M1980 1416 c0 -20 27 -39 45 -32 8 3 15 13 15 23 -1 17 -1 17 -11 1
-13 -24 -29 -23 -29 2 0 11 -4 20 -10 20 -5 0 -10 -6 -10 -14z"/>
<path d="M2247 948 c6 -11 75 -10 92 1 8 5 -7 8 -42 7 -30 0 -53 -4 -50 -8z"/>
<path d="M2352 2548 c4 -30 43 -33 43 -3 0 13 -8 21 -23 23 -20 3 -23 0 -20
-20z"/>
<path d="M1443 2525 c4 -5 35 -7 70 -6 90 2 294 -38 289 -58 -1 -8 4 -8 18 1
10 7 18 13 17 14 -1 2 -38 12 -82 24 -80 22 -328 41 -312 25z"/>
<path d="M737 2497 c-8 -21 8 -39 29 -35 27 5 25 42 -2 46 -12 2 -24 -3 -27
-11z"/>
<path d="M1170 2479 c-30 -11 -64 -23 -74 -26 -39 -13 -178 -95 -249 -147 -66
-49 -86 -68 -152 -147 -28 -34 -46 -69 -34 -69 5 0 9 5 9 10 0 22 206 214 258
241 15 8 29 16 32 19 15 16 64 41 135 69 44 18 88 37 97 42 10 5 29 9 42 9 14
0 28 5 31 10 10 16 -36 11 -95 -11z"/>
<path d="M623 2384 c-8 -21 13 -42 28 -27 13 13 5 43 -11 43 -6 0 -13 -7 -17
-16z"/>
<path d="M2696 2251 c-4 -5 -2 -12 3 -16 6 -3 8 -12 5 -19 -3 -9 3 -13 19 -13
20 0 24 5 25 28 0 16 -4 29 -9 29 -5 0 -9 -5 -9 -11 0 -8 -4 -8 -14 0 -9 8
-16 8 -20 2z"/>
<path d="M2370 2047 c0 -2 11 -18 25 -37 14 -19 25 -29 25 -23 0 7 -4 15 -10
18 -5 3 -10 15 -10 26 0 10 -7 19 -15 19 -8 0 -15 -1 -15 -3z"/>
<path d="M2430 1957 c0 -11 -4 -15 -12 -11 -7 4 -8 3 -4 -5 4 -6 11 -9 16 -6
8 5 17 -13 24 -52 2 -10 14 -43 25 -73 20 -53 32 -102 51 -200 4 -25 7 -101 5
-170 -3 -110 -7 -137 -37 -227 -19 -57 -32 -103 -30 -103 16 0 34 42 56 132
45 177 34 400 -29 583 -32 94 -64 159 -65 132z"/>
<path d="M531 1889 c-7 -19 -16 -41 -20 -49 -35 -68 -64 -251 -62 -390 2 -186
86 -445 181 -560 39 -46 39 -23 0 25 -16 21 -30 46 -30 56 0 9 -3 19 -7 21
-13 5 -60 101 -68 138 -4 19 -11 40 -15 45 -4 6 -18 61 -30 123 -19 98 -21
131 -15 238 4 68 11 127 16 130 5 3 7 9 4 14 -3 5 11 57 30 116 20 59 34 112
32 118 -2 5 -9 -6 -16 -25z"/>
<path d="M313 1728 c0 -30 6 -35 25 -16 9 9 12 9 12 0 0 -7 4 -12 8 -12 5 0 9
13 9 28 0 24 -4 29 -27 29 -23 0 -27 -5 -27 -29z"/>
<path d="M2360 1630 c0 -15 5 -20 18 -18 9 2 17 10 17 18 0 8 -8 16 -17 18
-13 2 -18 -3 -18 -18z"/>
<path d="M253 1633 c-21 -7 -15 -33 7 -33 11 0 20 6 20 14 0 18 -11 25 -27 19z"/>
<path d="M2444 1056 c-8 -14 -14 -35 -12 -48 3 -18 7 -13 20 25 19 52 16 59
-8 23z"/>
<path d="M526 729 c-126 -13 -120 -24 20 -39 54 -7 107 -16 117 -21 65 -35
409 -58 897 -59 358 0 691 16 805 39 60 13 36 12 -160 -3 -401 -32 -1174 -27
-1405 9 -52 8 -98 15 -102 15 -4 0 -14 7 -22 16 -10 10 -35 16 -63 17 -55 0
-34 11 42 21 120 17 16 20 -129 5z"/>
<path d="M2553 724 c25 -8 21 -24 -7 -24 -14 0 -27 -4 -30 -8 -5 -8 154 4 162
13 11 11 -7 16 -74 20 -38 2 -61 2 -51 -1z"/>
<path d="M2394 562 c2 -18 10 -26 28 -28 21 -2 25 2 25 25 0 23 -5 28 -28 28
-23 0 -27 -4 -25 -25z"/>
<path d="M2322 443 c2 -10 10 -18 18 -18 22 0 18 29 -3 33 -14 3 -18 -1 -15
-15z"/>
</g>
</svg>
